<?xml version="1.0" encoding="utf-8"?>
<!-- Generator: Adobe Illustrator 25.2.1, SVG Export Plug-In . SVG Version: 6.00 Build 0)  -->
<svg version="1.1" id="Layer_1" xmlns="http://www.w3.org/2000/svg" xmlns:xlink="http://www.w3.org/1999/xlink" x="0px" y="0px"
	 viewBox="0 0 1320 1202.28" style="enable-background:new 0 0 1320 1202.28;" xml:space="preserve">
<style type="text/css">
	.st0{fill:#FFFFFF;}
</style>
<g>
	<path class="st0" d="M1001.98,1197.16c73.92,0,95.03-66.62,95.03-142.15c0-49.55-2.43-78.8-21.12-124.29
		c-8.93-19.5-21.94-46.31-39.8-78.8c-14.62-26.8-42.24-74.74-46.31-107.22c-1.63-11.38-2.43-29.24-2.43-51.98
		c0-17.87-0.81-43.05,17.05-43.05c15.44,0,16.25,26.8,16.25,42.24v65.8h77.98V704.1c0-74.74-20.31-140.53-95.03-140.53
		c-78.8,0-95.03,72.29-95.03,142.15c0,45.49,2.43,81.24,21.94,121.85c8.12,18.68,20.31,43.86,36.56,76.35
		c17.87,31.67,30.06,55.24,36.56,70.68c15.44,35.74,16.25,56.86,16.25,93.42c0,17.87,0,42.24-17.87,42.24s-17.87-23.56-17.87-41.42
		v-73.92h-78.8v62.55c0,74.74,21.94,139.71,96.66,139.71V1197.16z M1218.06,1197.16c73.92,0,95.03-66.62,95.03-142.15
		c0-49.55-2.43-78.8-21.12-124.29c-8.93-19.5-21.94-46.31-39.8-78.8c-14.62-26.8-42.24-74.74-46.31-107.22
		c-1.63-11.38-2.43-29.24-2.43-51.98c0-17.87-0.81-43.05,17.05-43.05c15.44,0,16.25,26.8,16.25,42.24v65.8h77.98V704.1
		c0-74.74-20.31-140.53-95.03-140.53c-78.8,0-95.03,72.29-95.03,142.15c0,45.49,2.43,81.24,21.94,121.85
		c8.12,18.68,20.31,43.86,36.56,76.35c17.87,31.67,30.06,55.24,36.56,70.68c15.44,35.74,16.25,56.86,16.25,93.42
		c0,17.87,0,42.24-17.87,42.24s-17.87-23.56-17.87-41.42v-73.92h-78.8v62.55c0,74.74,21.94,139.71,96.66,139.71L1218.06,1197.16z
		 M885.82,1186.59v-89.36h-69.05V920.14h61.73v-90.17h-61.73V663.46h67.42V574.1h-144.6v612.48H885.8L885.82,1186.59z
		 M563.34,1186.59l-4.06-264.81c-0.81-32.49-2.43-85.3-5.69-156.78h0.81l61.73,421.59h77.17V574.11h-73.11l3.25,266.44
		c0,32.49,2.43,84.48,5.69,155.15h-1.63l-57.67-421.59h-77.98v612.48L563.34,1186.59L563.34,1186.59z M413.05,1186.59V663.46h51.18
		V574.1H283.9v89.36h51.18v523.13H413.05L413.05,1186.59z M180.74,574.11h77.17v612.48h-77.17V574.11L180.74,574.11z M82.45,1186.59
		V931.52h61.73v-87.73H82.45V663.46h68.23V574.1H5.28v612.48L82.45,1186.59L82.45,1186.59z"/>
	<path class="st0" d="M651.43,531.09c145.81,0,228.74-95.37,228.74-252.93v-15.2c0-157.56-82.93-252.93-228.74-252.93H493.18
		c-24.19,0-38.01,13.83-38.01,38.01v445.05c0,24.19,13.83,38.01,38.01,38.01h158.25L651.43,531.09L651.43,531.09z M626.55,167.59
		h25.57c49.07,0,55.29,44.92,55.29,102.97s-6.22,102.97-55.29,102.97h-25.57V167.59z M1285.83,531.09
		c24.87,0,35.93-17.28,24.19-40.78l-114.02-230.82l107.11-208.7c12.44-23.5,2.77-40.78-22.81-40.78h-122.32
		c-13.12,0-24.87,8.3-31.09,21.42l-46.99,100.9l-46.99-100.9c-6.22-13.12-17.97-21.42-31.09-21.42H879.49
		c-25.57,0-35.25,17.28-22.81,40.78l107.11,208.7L849.78,490.31c-11.75,23.5-0.69,40.78,24.19,40.78h124.39
		c13.83,0,26.26-8.98,31.79-22.81l49.76-119.55l49.76,119.55c5.53,13.83,17.97,22.81,31.79,22.81h124.39H1285.83z M201.54,531.09
		c145.81,0,228.74-95.37,228.74-252.93v-15.2c0-157.56-82.93-252.93-228.74-252.93H43.29c-24.19,0-38.01,13.83-38.01,38.01v445.05
		c0,24.19,13.83,38.01,38.01,38.01h158.25L201.54,531.09z M179.43,167.59H205c49.07,0,55.29,44.92,55.29,102.97
		S254.08,373.54,205,373.54h-25.57V167.59z"/>
</g>
</svg>
